<svg width="34" height="34" viewBox="0 0 34 34" fill="none" xmlns="http://www.w3.org/2000/svg">
<path d="M23.983 0.333374H10.0163C3.94967 0.333374 0.333008 3.95004 0.333008 10.0167V23.9667C0.333008 30.05 3.94967 33.6667 10.0163 33.6667H23.9663C30.033 33.6667 33.6497 30.05 33.6497 23.9834V10.0167C33.6663 3.95004 30.0497 0.333374 23.983 0.333374ZM16.1663 25.75C16.1663 26.35 15.5663 26.75 15.0163 26.5167C12.9997 25.65 10.3663 24.85 8.53301 24.6167L8.21634 24.5834C7.19967 24.45 6.36634 23.5 6.36634 22.4667V9.63337C6.36634 8.35004 7.39967 7.40004 8.66634 7.50004C10.7497 7.66671 13.833 8.66671 15.7663 9.76671C16.033 9.91671 16.1663 10.2 16.1663 10.4834V25.75ZM27.633 22.45C27.633 23.4834 26.7997 24.4334 25.783 24.5667L25.433 24.6C23.6163 24.85 20.9997 25.6334 18.983 26.4834C18.433 26.7167 17.833 26.3167 17.833 25.7167V10.4667C17.833 10.1667 17.983 9.88337 18.2497 9.73337C20.183 8.65004 23.1997 7.68337 25.2497 7.50004H25.3163C26.5997 7.50004 27.633 8.53337 27.633 9.81671V22.45Z" fill="#546FFF"/>
</svg>
